<?xml version="1.0" encoding="UTF-8" standalone="no"?><!-- Created with Inkscape (http://www.inkscape.org/) -->

<svg height="512" id="svg1" version="1.1" viewBox="0 0 512 512" width="512" xmlns="http://www.w3.org/2000/svg" xml:space="preserve"><defs
     id="defs1" />
    <g id="layer1"><path
       style="fill:#ffffff;stroke-width:0.265"
       d="m 171.2,330.2 q -8.745,0 -14.9725,-6.2275 Q 150,317.745 150,309 V 203 q 0,-8.745 6.2275,-14.9725 Q 162.455,181.8 171.2,181.8 h 169.6 q 8.745,0 14.9725,6.2275 Q 362,194.255 362,203 v 106 q 0,8.745 -6.2275,14.9725 Q 349.545,330.2 340.8,330.2 Z m 0,-21.2 H 340.8 V 203 H 171.2 Z m 53,-10.6 h 63.6 q 4.505,0 7.5525,-3.0475 3.0475,-3.0475 3.0475,-7.5525 0,-4.505 -3.0475,-7.5525 Q 292.305,277.2 287.8,277.2 h -63.6 q -4.505,0 -7.5525,3.0475 -3.0475,3.0475 -3.0475,7.5525 0,4.505 3.0475,7.5525 3.0475,3.0475 7.5525,3.0475 z m -53,10.6 V 203 Z m 21.2,-74.2 q 4.505,0 7.5525,-3.0475 Q 203,228.705 203,224.2 q 0,-4.505 -3.0475,-7.5525 Q 196.905,213.6 192.4,213.6 q -4.505,0 -7.5525,3.0475 -3.0475,3.0475 -3.0475,7.5525 0,4.505 3.0475,7.5525 3.0475,3.0475 7.5525,3.0475 z m 31.8,0 q 4.505,0 7.5525,-3.0475 3.0475,-3.0475 3.0475,-7.5525 0,-4.505 -3.0475,-7.5525 Q 228.705,213.6 224.2,213.6 q -4.505,0 -7.5525,3.0475 -3.0475,3.0475 -3.0475,7.5525 0,4.505 3.0475,7.5525 3.0475,3.0475 7.5525,3.0475 z m 31.8,0 q 4.505,0 7.5525,-3.0475 3.0475,-3.0475 3.0475,-7.5525 0,-4.505 -3.0475,-7.5525 Q 260.505,213.6 256,213.6 q -4.505,0 -7.5525,3.0475 -3.0475,3.0475 -3.0475,7.5525 0,4.505 3.0475,7.5525 Q 251.495,234.8 256,234.8 Z m 31.8,0 q 4.505,0 7.5525,-3.0475 3.0475,-3.0475 3.0475,-7.5525 0,-4.505 -3.0475,-7.5525 Q 292.305,213.6 287.8,213.6 q -4.505,0 -7.5525,3.0475 -3.0475,3.0475 -3.0475,7.5525 0,4.505 3.0475,7.5525 3.0475,3.0475 7.5525,3.0475 z m 31.8,0 q 4.505,0 7.5525,-3.0475 3.0475,-3.0475 3.0475,-7.5525 0,-4.505 -3.0475,-7.5525 Q 324.105,213.6 319.6,213.6 q -4.505,0 -7.5525,3.0475 Q 309,219.695 309,224.2 q 0,4.505 3.0475,7.5525 3.0475,3.0475 7.5525,3.0475 z m -127.2,31.8 q 4.505,0 7.5525,-3.0475 Q 203,260.505 203,256 q 0,-4.505 -3.0475,-7.5525 Q 196.905,245.4 192.4,245.4 q -4.505,0 -7.5525,3.0475 Q 181.8,251.495 181.8,256 q 0,4.505 3.0475,7.5525 3.0475,3.0475 7.5525,3.0475 z m 31.8,0 q 4.505,0 7.5525,-3.0475 Q 234.8,260.505 234.8,256 q 0,-4.505 -3.0475,-7.5525 Q 228.705,245.4 224.2,245.4 q -4.505,0 -7.5525,3.0475 Q 213.6,251.495 213.6,256 q 0,4.505 3.0475,7.5525 3.0475,3.0475 7.5525,3.0475 z m 31.8,0 q 4.505,0 7.5525,-3.0475 Q 266.6,260.505 266.6,256 q 0,-4.505 -3.0475,-7.5525 Q 260.505,245.4 256,245.4 q -4.505,0 -7.5525,3.0475 Q 245.4,251.495 245.4,256 q 0,4.505 3.0475,7.5525 Q 251.495,266.6 256,266.6 Z m 31.8,0 q 4.505,0 7.5525,-3.0475 Q 298.4,260.505 298.4,256 q 0,-4.505 -3.0475,-7.5525 Q 292.305,245.4 287.8,245.4 q -4.505,0 -7.5525,3.0475 Q 277.2,251.495 277.2,256 q 0,4.505 3.0475,7.5525 3.0475,3.0475 7.5525,3.0475 z m 31.8,0 q 4.505,0 7.5525,-3.0475 Q 330.2,260.505 330.2,256 q 0,-4.505 -3.0475,-7.5525 Q 324.105,245.4 319.6,245.4 q -4.505,0 -7.5525,3.0475 Q 309,251.495 309,256 q 0,4.505 3.0475,7.5525 3.0475,3.0475 7.5525,3.0475 z"
       id="path1-1" /></g></svg>
